# Blender v2.93.4 OBJ File: 'OceanPlatform3.blend'
# www.blender.org
mtllib BeachPlatform3.mtl
o OceanPlatform1.001_OceanPlatform1.004
v -2.447626 -0.146763 -2.169289
v -2.174127 0.793609 -2.066868
v -2.957896 -0.147692 -1.424276
v -3.136782 -0.146970 -0.590104
v -2.790784 0.781850 -1.232340
v -2.953478 0.795117 -0.539493
v -2.764300 -0.146313 -1.746840
v -2.257356 -0.148326 -0.589885
v -2.566555 0.778209 -1.625428
v -1.153381 -0.164379 -2.732677
v -1.579738 -0.153456 -2.647530
v -1.117995 0.402351 -2.562438
v -1.486074 0.719999 -2.427356
v -0.801140 -0.147913 -2.762542
v -0.521328 -0.152256 -2.720096
v -0.973019 0.408798 -2.581975
v -0.725462 0.733697 -2.488613
v -1.471698 -0.150633 -1.375542
v -1.471697 -0.150549 -0.589885
v -0.686032 -0.153611 -1.375540
v -0.686014 -0.154191 -0.589879
v -3.009585 -0.149513 0.279884
v -2.797447 -0.176879 0.649853
v -2.858247 0.702040 0.060308
v -2.652443 0.386556 0.592395
v -2.257522 -0.138028 0.196141
v -2.433400 -0.194607 1.267674
v -2.570666 0.915580 0.447224
v -2.187510 0.692972 1.151737
v -1.948693 -0.199624 1.526146
v -1.892706 0.435686 1.388991
v -1.471696 -0.150711 0.195772
v -1.471898 -0.147611 0.981659
v -1.742380 0.977496 1.360429
v -0.685987 -0.155082 0.195780
v -0.686047 -0.158349 0.981432
v -1.569397 -0.172681 1.625870
v -1.216078 0.693849 1.573765
v -0.955215 -0.157673 2.172798
v -0.418639 -0.158303 2.354077
v -0.617196 0.779956 2.072240
v -0.396247 0.490582 2.203981
v -2.048941 1.429934 -1.934721
v -2.707163 1.295135 -1.077673
v -2.820202 1.393711 -0.585818
v -2.355730 1.705340 -1.592759
v -2.679260 1.810714 -0.617865
v -2.124739 2.296277 -1.353834
v -2.365779 2.303576 -0.661975
v -1.528075 1.674492 -2.085868
v -1.324499 2.070018 -1.879983
v -0.589566 1.614003 -2.156191
v -0.647650 2.080906 -1.901038
v -1.837917 1.929289 -1.755087
v -1.588483 2.425520 -1.542059
v -1.486408 2.523689 -0.587700
v -0.624317 2.448435 -1.592124
v -0.686764 2.583964 -0.591636
v -2.716616 1.304526 -0.079053
v -2.540043 1.654847 0.104281
v -2.070509 1.585155 0.823517
v -2.097594 2.210308 0.229356
v -1.917760 2.005724 0.651601
v -1.645048 1.660028 1.185513
v -1.736385 2.322663 0.393580
v -1.493103 2.200566 0.925798
v -0.985116 1.836528 1.344074
v -0.688801 2.487608 0.202583
v -0.746878 2.257092 1.123034
v -1.183478 1.295559 1.373475
v -0.695462 1.754616 1.635021
v -0.456125 2.077945 1.479085
v 0.236245 -0.157678 -2.492495
v 0.067975 0.800989 -2.176316
v 0.856908 -0.191138 -1.986172
v 0.616271 0.508662 -1.816032
v 0.099851 -0.158253 -1.375491
v 0.099723 -0.168012 -0.589860
v 0.419018 1.040068 -1.704053
v 1.133163 -0.197946 -1.894380
v 0.886355 -0.221732 -0.590072
v 0.883612 0.772681 -1.595171
v 1.798406 -0.128592 -1.575145
v 2.205420 -0.155413 -0.965920
v 1.508495 0.794448 -1.329322
v 2.010085 0.830920 -0.639633
v 2.428796 -0.226922 -0.697472
v 2.183114 0.581413 -0.421284
v 0.099551 -0.178052 0.195773
v 0.099575 -0.173486 0.981678
v 0.885643 -0.201689 0.196227
v 0.885259 -0.154731 0.981365
v 0.099784 -0.163217 1.767630
v 0.114419 -0.137620 2.401595
v 0.083561 0.942172 2.174364
v 0.102313 0.541847 2.250640
v 1.011999 -0.117260 2.250640
v 0.642998 -0.131267 2.323958
v 0.890853 0.758302 2.079246
v 0.615510 0.471701 2.179095
v 1.670881 -0.163329 0.195321
v 2.186713 -0.155112 1.316750
v 2.027589 1.083432 -0.085318
v 2.041039 0.779605 1.276054
v 2.551671 -0.214978 0.206530
v 2.354953 -0.196620 1.068165
v 2.185724 0.813359 0.184176
v 2.136548 0.774834 1.038047
v 1.911226 -0.154042 1.852914
v 1.761300 0.806115 1.733035
v -0.091388 1.589847 -1.938620
v -0.266215 1.972076 -1.783981
v 0.281275 1.568893 -1.637119
v 0.030943 2.330366 -1.345673
v 0.179066 2.528308 -0.759403
v 0.965846 1.619844 -1.289074
v 1.224247 1.880669 -0.930775
v 0.710803 2.153090 -1.122823
v 0.992071 2.374556 -0.688729
v 1.397320 1.360746 -1.102304
v 1.697456 1.629254 -0.603784
v 1.429909 2.164271 -0.418633
v 0.100664 2.497709 0.199512
v -0.009824 2.342600 1.179550
v 1.105236 2.441025 0.020820
v 0.958854 2.338881 1.200309
v 0.039937 1.753549 1.954996
v 0.009140 2.109800 1.677041
v 0.857779 1.823281 1.811722
v 0.907872 2.128899 1.578601
v 1.970000 1.521928 0.149919
v 1.946635 1.593254 1.217419
v 1.615052 2.275154 0.169157
v 1.714434 2.219989 0.991268
v 2.089438 1.176141 0.435180
v 2.083362 1.173988 0.716251
v 1.625157 1.604142 1.614124
v 1.387483 2.032724 1.456942
vn -0.9544 0.2066 -0.2154
vn -0.0002 -1.0000 -0.0006
vn -0.8364 0.2473 -0.4891
vn -0.1513 0.2712 -0.9505
vn 0.0691 0.2906 -0.9543
vn 0.0177 -0.9973 0.0718
vn -0.0913 0.3183 -0.9436
vn -0.1078 0.2844 -0.9526
vn -0.0042 -1.0000 -0.0003
vn -0.4504 0.2439 -0.8589
vn -0.0031 -1.0000 -0.0002
vn -0.7481 0.2622 -0.6095
vn -0.0009 -1.0000 0.0005
vn -0.0050 -1.0000 0.0013
vn -0.8307 0.2694 0.4873
vn 0.0225 -0.9980 -0.0587
vn -0.8204 0.2658 0.5064
vn -0.8159 0.2802 0.5058
vn -0.0096 -1.0000 -0.0001
vn -0.3014 0.2152 0.9289
vn -0.6364 0.3038 0.7090
vn 0.0151 -0.9995 -0.0273
vn -0.3050 0.2004 0.9310
vn -0.4644 0.2340 0.8541
vn 0.0076 -0.9999 -0.0118
vn 0.0476 -0.9974 -0.0536
vn -0.3936 0.1570 0.9058
vn -0.8255 0.4707 -0.3114
vn -0.8928 0.3257 -0.3110
vn -0.0351 0.4758 -0.8789
vn -0.0504 0.9918 -0.1175
vn -0.2450 0.9660 -0.0826
vn -0.4195 0.5003 -0.7574
vn -0.3353 0.5347 -0.7757
vn -0.0461 0.6575 -0.7521
vn -0.4409 0.4629 -0.7690
vn -0.7181 0.4628 0.5197
vn -0.1195 0.9612 0.2486
vn -0.2895 0.5196 0.8038
vn -0.5377 0.6956 0.4765
vn -0.6186 0.4766 0.6246
vn -0.4467 0.6157 0.6491
vn -0.4354 0.2073 0.8761
vn 0.6184 0.3577 -0.6997
vn -0.0577 -0.9981 -0.0228
vn 0.7647 0.3554 -0.5375
vn 0.8260 0.3510 -0.4411
vn 0.0673 -0.9972 -0.0320
vn 0.3658 0.3522 -0.8615
vn 0.3397 0.3455 -0.8748
vn -0.0442 -0.9990 -0.0010
vn 0.5491 0.3625 -0.7530
vn -0.0031 -0.9995 0.0328
vn 0.1554 0.2215 0.9627
vn 0.0278 -0.9992 0.0303
vn 0.1587 0.1892 0.9690
vn 0.1516 0.2266 0.9621
vn 0.9495 0.2811 0.1394
vn -0.0824 -0.9962 0.0266
vn 0.8715 0.1833 0.4549
vn 0.0142 -0.9996 0.0251
vn 0.3787 0.1993 0.9038
vn 0.0320 -0.9993 0.0212
vn 0.8615 0.1748 0.4768
vn -0.0163 -0.9997 0.0200
vn 0.5269 0.5178 -0.6740
vn 0.2777 0.8418 -0.4629
vn 0.3813 0.4369 -0.8147
vn 0.6162 0.4241 -0.6637
vn 0.6355 0.5384 -0.5534
vn 0.5355 0.4722 -0.7002
vn 0.0402 0.9916 0.1229
vn 0.0798 0.6078 0.7901
vn 0.9216 0.3861 -0.0404
vn 0.9486 0.3164 0.0045
vn 0.2225 0.9715 0.0816
vn 0.3319 0.5075 0.7952
vn 0.0114 0.8922 0.4515
vn 0.6413 0.4977 0.5840
vn 0.2780 0.8152 0.5082
vn 0.2991 0.3266 -0.8966
vn -0.0117 -0.9999 -0.0066
vn -0.0063 -1.0000 -0.0016
vn -0.0242 -0.9997 0.0008
vn 0.0143 -0.9997 0.0210
vn -0.1605 0.2335 0.9590
vn -0.1039 0.2206 0.9698
vn -0.0103 -0.9999 0.0041
vn 0.3741 0.4843 -0.7909
vn 0.1217 0.9700 -0.2104
vn 0.3798 0.5768 -0.7232
vn -0.0681 0.9789 0.1926
vn -0.3357 0.5779 0.7438
vn -0.1854 0.8570 0.4809
vn -0.0629 0.3469 -0.9358
vn -0.9481 0.2084 -0.2403
vn -0.8651 0.2345 -0.4434
vn -0.6900 0.2210 -0.6892
vn -0.4075 0.2801 -0.8692
vn 0.3984 0.2549 -0.8811
vn 0.7363 0.3412 -0.5844
vn 0.6503 0.3072 -0.6948
vn 0.4333 0.3258 -0.8403
vn -0.7930 0.2918 0.5348
vn -0.8596 0.2670 0.4357
vn -0.6394 0.2723 0.7191
vn -0.1886 0.2929 0.9373
vn -0.6079 0.3155 0.7286
vn 0.9789 0.1971 0.0547
vn 0.9461 0.2802 -0.1623
vn 0.9633 0.1798 0.1995
vn 0.1578 0.2541 0.9542
vn 0.8083 0.1775 0.5614
vn 0.3281 0.2203 0.9186
vn -0.9677 0.1955 0.1592
vn 0.0064 -1.0000 0.0042
vn -0.0051 -1.0000 -0.0007
vn -0.0095 -0.9999 0.0064
vn -0.7881 0.5464 0.2834
vn -0.9118 0.3289 0.2457
vn -0.1041 0.9832 0.1499
vn -0.2830 0.9471 0.1516
vn -0.0491 -0.9988 0.0063
vn 0.9350 0.3295 -0.1310
vn -0.1060 -0.9942 -0.0192
vn 0.8978 0.4005 -0.1829
vn 0.0534 -0.9984 0.0209
vn 0.1136 0.9932 -0.0237
vn 0.8432 0.4533 -0.2889
vn 0.4424 0.8693 -0.2206
vn -0.9453 0.2490 0.2108
vn 0.9146 0.3262 -0.2390
vn -0.0234 -0.9997 -0.0070
vn 0.0350 0.9967 0.0738
vn 0.3524 0.3069 -0.8841
vn -0.3000 0.3111 0.9018
usemtl lambert2SG.001
s off
f 3//1 4//1 6//1 5//1
f 3//2 7//2 8//2 4//2
f 3//3 5//3 9//3 7//3
f 10//4 11//4 13//4 12//4
f 16//5 17//5 15//5 14//5
f 10//6 14//6 15//6 11//6
f 13//7 17//7 16//7 12//7
f 10//8 12//8 16//8 14//8
f 18//9 20//9 21//9 19//9
f 1//10 2//10 13//10 11//10
f 7//11 18//11 19//11 8//11
f 1//12 7//12 9//12 2//12
f 11//13 15//13 20//13 18//13
f 1//14 11//14 18//14 7//14
f 22//15 23//15 25//15 24//15
f 22//16 26//16 27//16 23//16
f 25//17 29//17 28//17 24//17
f 27//18 29//18 25//18 23//18
f 32//19 35//19 36//19 33//19
f 39//20 40//20 42//20 41//20
f 39//21 41//21 38//21 37//21
f 26//22 32//22 33//22 27//22
f 37//23 38//23 31//23 30//23
f 27//24 30//24 31//24 29//24
f 33//25 36//25 39//25 37//25
f 27//26 33//26 37//26 30//26
f 31//27 38//27 34//27 29//27
f 46//28 47//28 49//28 48//28
f 45//29 47//29 46//29 44//29
f 50//30 51//30 53//30 52//30
f 56//31 58//31 57//31 55//31
f 49//32 56//32 55//32 48//32
f 46//33 48//33 55//33 54//33
f 50//34 54//34 55//34 51//34
f 55//35 57//35 53//35 51//35
f 46//36 54//36 50//36 43//36
f 60//37 61//37 63//37 62//37
f 66//38 69//38 68//38 65//38
f 67//39 69//39 66//39 64//39
f 63//40 66//40 65//40 62//40
f 64//41 66//41 63//41 61//41
f 67//42 71//42 72//42 69//42
f 70//43 71//43 67//43 64//43
f 73//44 74//44 76//44 75//44
f 77//45 80//45 81//45 78//45
f 85//46 86//46 84//46 83//46
f 84//47 86//47 88//47 87//47
f 80//48 83//48 84//48 81//48
f 80//49 82//49 85//49 83//49
f 76//50 82//50 80//50 75//50
f 73//51 75//51 80//51 77//51
f 79//52 82//52 76//52 74//52
f 89//53 91//53 92//53 90//53
f 99//54 100//54 98//54 97//54
f 93//55 97//55 98//55 94//55
f 96//56 100//56 99//56 95//56
f 98//57 100//57 96//57 94//57
f 107//58 108//58 106//58 105//58
f 101//59 105//59 106//59 102//59
f 106//60 108//60 104//60 102//60
f 91//61 101//61 102//61 92//61
f 109//62 110//62 99//62 97//62
f 90//63 92//63 97//63 93//63
f 104//64 110//64 109//64 102//64
f 92//65 102//65 109//65 97//65
f 118//66 119//66 117//66 116//66
f 115//67 119//67 118//67 114//67
f 113//68 114//68 118//68 116//68
f 117//69 121//69 120//69 116//69
f 117//70 119//70 122//70 121//70
f 112//71 114//71 113//71 111//71
f 124//72 126//72 125//72 123//72
f 129//73 130//73 128//73 127//73
f 133//74 134//74 132//74 131//74
f 132//75 136//75 135//75 131//75
f 126//76 134//76 133//76 125//76
f 137//77 138//77 130//77 129//77
f 128//78 130//78 126//78 124//78
f 134//79 138//79 137//79 132//79
f 130//80 138//80 134//80 126//80
f 15//81 17//81 74//81 73//81
f 20//82 77//82 78//82 21//82
f 15//83 73//83 77//83 20//83
f 35//84 89//84 90//84 36//84
f 39//85 93//85 94//85 40//85
f 42//86 96//86 95//86 41//86
f 94//87 96//87 42//87 40//87
f 36//88 90//88 93//88 39//88
f 52//89 53//89 112//89 111//89
f 58//90 115//90 114//90 57//90
f 57//91 114//91 112//91 53//91
f 69//92 124//92 123//92 68//92
f 127//93 128//93 72//93 71//93
f 72//94 128//94 124//94 69//94
f 13//95 50//95 52//95 17//95
f 5//96 6//96 45//96 44//96
f 5//97 44//97 46//97 9//97
f 2//98 9//98 46//98 43//98
f 2//99 43//99 50//99 13//99
f 79//100 113//100 116//100 82//100
f 120//101 121//101 86//101 85//101
f 111//102 113//102 79//102 74//102
f 82//103 116//103 120//103 85//103
f 28//104 29//104 61//104 60//104
f 28//105 60//105 59//105 24//105
f 41//106 71//106 70//106 38//106
f 34//107 38//107 70//107 64//107
f 34//108 64//108 61//108 29//108
f 135//109 136//109 108//109 107//109
f 103//110 131//110 135//110 107//110
f 108//111 136//111 132//111 104//111
f 99//112 129//112 127//112 95//112
f 132//113 137//113 110//113 104//113
f 110//114 137//114 129//114 99//114
f 4//115 22//115 24//115 6//115
f 4//116 8//116 26//116 22//116
f 19//117 21//117 35//117 32//117
f 8//118 19//118 32//118 26//118
f 47//119 60//119 62//119 49//119
f 59//120 60//120 47//120 45//120
f 65//121 68//121 58//121 56//121
f 62//122 65//122 56//122 49//122
f 78//123 81//123 91//123 89//123
f 88//124 107//124 105//124 87//124
f 84//125 87//125 105//125 101//125
f 103//126 107//126 88//126 86//126
f 81//127 84//127 101//127 91//127
f 123//128 125//128 119//128 115//128
f 122//129 133//129 131//129 121//129
f 125//130 133//130 122//130 119//130
f 6//131 24//131 59//131 45//131
f 121//132 131//132 103//132 86//132
f 21//133 78//133 89//133 35//133
f 68//134 123//134 115//134 58//134
f 17//135 52//135 111//135 74//135
f 95//136 127//136 71//136 41//136
