# This file uses centimeters as units for non-parametric coordinates.

mtllib mound2.mtl
g default
v -0.821652 -0.984392 -1.001193
v -1.114274 -0.892112 -1.404457
v -1.584084 -0.936583 -1.896375
v -2.194880 -0.973739 -2.213509
v -2.908103 -0.926988 -2.302378
v -3.572419 -0.849424 -2.179428
v -4.198187 -0.918053 -1.869913
v -4.705835 -0.917089 -1.364501
v -5.002783 -0.894608 -0.732938
v -5.102480 -0.877509 -0.045397
v -4.989970 -0.853968 0.637041
v -4.676429 -0.819220 1.252068
v -4.302433 -0.857170 1.790346
v -3.676962 -0.790225 2.097991
v -2.878093 -0.657372 2.133010
v -2.179861 -0.591633 1.998265
v -1.567523 -0.723865 1.757189
v -1.077058 -0.794341 1.331515
v -0.718681 -0.837399 0.701567
v -0.718569 -0.798879 -0.053166
v -1.381421 1.214397 -0.339306
v -1.480605 0.757087 -0.356874
v -1.828155 1.273345 -0.792104
v -1.708259 0.776555 -0.827721
v -2.220023 1.228060 -1.116424
v -2.086410 0.770400 -1.225618
v -2.628887 1.275231 -1.324753
v -2.524566 0.777407 -1.537084
v -3.030587 1.372241 -1.382908
v -3.010353 0.845979 -1.655284
v -3.372319 1.464941 -1.337299
v -3.474850 0.961829 -1.668435
v -3.650822 1.516456 -1.253252
v -3.840382 1.052385 -1.545058
v -3.890452 1.560613 -1.094892
v -4.095362 1.102236 -1.278512
v -4.103259 1.545410 -0.827386
v -4.317112 1.061811 -0.896221
v -4.358855 1.451322 -0.463572
v -4.680344 1.001785 -0.445597
v -4.446991 1.367367 -0.071823
v -4.852279 0.940501 0.046912
v -4.272818 1.246779 0.426664
v -4.494590 0.704451 0.666748
v -3.870632 1.082471 1.080157
v -3.940320 0.568973 1.276895
v -3.429231 1.186233 1.559160
v -3.297218 0.668408 1.822647
v -2.852589 1.233758 1.694346
v -2.853310 0.641325 1.783159
v -2.064783 1.231382 1.641981
v -2.111542 0.615406 1.655635
v -1.596458 1.186848 1.421420
v -1.616047 0.716089 1.477910
v -1.284383 1.150986 1.119649
v -1.304410 0.692043 1.157232
v -1.121180 1.167475 0.740738
v -1.129421 0.661731 0.741270
v -1.151068 1.254851 0.209811
v -1.232353 0.629443 0.212853
v -1.871516 0.100216 -1.518325
v -1.467980 0.106711 -1.057198
v -1.215667 0.055770 -0.614449
v -1.025541 0.054507 0.105774
v -0.967831 0.054069 0.723286
v -1.214572 0.090454 1.226074
v -1.601744 0.119957 1.586812
v -2.149205 0.109768 1.793085
v -2.862035 0.109684 1.926751
v -3.522553 0.098941 1.872538
v -4.150580 0.032844 1.521947
v -4.563836 0.090415 0.912508
v -4.894032 0.207301 0.338705
v -4.899013 0.249228 -0.256197
v -4.752905 0.328051 -0.892300
v -4.410543 0.316465 -1.358191
v -4.021463 0.268361 -1.711576
v -3.534474 0.250570 -1.929913
v -2.970219 0.140598 -1.934735
v -2.374774 0.111155 -1.880292
v -0.967963 -0.938252 -1.202825
v -1.341824 0.081241 -0.835824
v -1.594432 0.766821 -0.592298
v -1.604789 1.243871 -0.565705
vt 1.032523 0.096185
vt 0.997013 0.026493
vt 0.941705 -0.028815
vt 0.872013 -0.064325
vt 0.794759 -0.076561
vt 0.717505 -0.064325
vt 0.647813 -0.028815
vt 0.592505 0.026493
vt 0.556995 0.096185
vt 0.544759 0.173439
vt 0.556995 0.250694
vt 0.592505 0.320386
vt 0.647813 0.375694
vt 0.717505 0.411203
vt 0.794759 0.423439
vt 0.872013 0.411203
vt 0.941705 0.375694
vt 0.997013 0.320386
vt 1.032523 0.250694
vt 1.044759 0.173439
vt 0.381249 0.750000
vt 0.629619 0.740762
vt 0.624529 0.750000
vt 0.613505 0.750000
vt 0.447489 0.750000
vt 0.250000 0.500000
vt 0.275000 0.500000
vt 0.370381 0.740762
vt 0.300000 0.500000
vt 0.383343 0.740762
vt 0.325000 0.500000
vt 0.396305 0.740762
vt 0.350000 0.500000
vt 0.409267 0.740762
vt 0.375000 0.500000
vt 0.422229 0.740762
vt 0.400000 0.500000
vt 0.435190 0.740762
vt 0.425000 0.500000
vt 0.448152 0.740762
vt 0.450000 0.500000
vt 0.461114 0.740762
vt 0.475000 0.500000
vt 0.474076 0.740762
vt 0.500000 0.500000
vt 0.487038 0.740762
vt 0.525000 0.500000
vt 0.500000 0.740762
vt 0.550000 0.500000
vt 0.512962 0.740762
vt 0.575000 0.500000
vt 0.525924 0.740762
vt 0.600000 0.500000
vt 0.538886 0.740762
vt 0.625000 0.500000
vt 0.551847 0.740762
vt 0.650000 0.500000
vt 0.564809 0.740762
vt 0.675000 0.500000
vt 0.577771 0.740762
vt 0.700000 0.500000
vt 0.590733 0.740762
vt 0.725000 0.500000
vt 0.603695 0.740762
vt 0.750000 0.500000
vt 0.616657 0.740762
vt 0.387958 0.750000
vt 0.399588 0.750000
vt 0.411617 0.750000
vt 0.423630 0.750000
vt 0.435597 0.750000
vt 0.447498 0.750000
vt 0.459308 0.750000
vt 0.470993 0.750000
vt 0.482501 0.750000
vt 0.493750 0.750000
vt 0.505001 0.750000
vt 0.515865 0.750000
vt 0.526124 0.750000
vt 0.535376 0.750000
vt 0.542823 0.750000
vt 0.546669 0.750000
vt 0.542121 0.750000
vt 0.513390 0.750000
vt 0.983982 0.074443
vt 1.006416 0.199136
vt 0.989220 0.324658
vt 0.934077 0.438723
vt 0.846385 0.530165
vt 0.734728 0.590033
vt 0.610035 0.612468
vt 0.484513 0.595272
vt 0.370448 0.540129
vt 0.279006 0.452437
vt 0.219138 0.340780
vt 0.196703 0.216087
vt 0.213899 0.090565
vt 0.269042 -0.023500
vt 0.356734 -0.114942
vt 0.468391 -0.174811
vt 0.593084 -0.197245
vt 0.718606 -0.180049
vt 0.832671 -0.124906
vt 0.924113 -0.037214
vt 0.357540 0.643849
vt 0.339732 0.643849
vt 0.321925 0.643849
vt 0.678075 0.643849
vt 0.660268 0.643849
vt 0.642460 0.643849
vt 0.624653 0.643849
vt 0.606845 0.643849
vt 0.589038 0.643849
vt 0.571230 0.643849
vt 0.553423 0.643849
vt 0.535615 0.643849
vt 0.517807 0.643849
vt 0.500000 0.643849
vt 0.482192 0.643849
vt 0.464385 0.643849
vt 0.446577 0.643849
vt 0.428770 0.643849
vt 0.410962 0.643849
vt 0.393155 0.643849
vt 0.375347 0.643849
vt 0.262500 0.500000
vt 1.014768 0.061339
vt 0.330828 0.643849
vt 0.376862 0.740762
vt 0.384604 0.750000
vt 0.954047 0.018614
vn 0.006768 -0.998797 0.048562
vn 0.006768 -0.998797 0.048562
vn 0.006768 -0.998797 0.048562
vn 0.006768 -0.998797 0.048562
vn 0.006768 -0.998797 0.048562
vn 0.006768 -0.998797 0.048562
vn 0.006768 -0.998797 0.048562
vn 0.006768 -0.998797 0.048562
vn 0.006768 -0.998797 0.048562
vn 0.006768 -0.998797 0.048562
vn 0.006768 -0.998797 0.048562
vn 0.006768 -0.998797 0.048562
vn 0.006768 -0.998797 0.048562
vn 0.006768 -0.998797 0.048562
vn 0.006768 -0.998797 0.048562
vn 0.006768 -0.998797 0.048562
vn 0.006768 -0.998797 0.048562
vn 0.006768 -0.998797 0.048562
vn 0.006768 -0.998797 0.048562
vn 0.006768 -0.998797 0.048562
vn 0.006768 -0.998797 0.048562
vn 0.885306 -0.122295 -0.448638
vn 0.880611 -0.117274 -0.459098
vn 0.808640 0.051331 -0.586061
vn 0.808636 0.053166 -0.585902
vn 0.954796 -0.115252 -0.274010
vn 0.955665 -0.114572 -0.271254
vn 0.699424 0.240003 -0.673205
vn 0.711655 0.230167 -0.663754
vn 0.580653 0.330857 -0.743892
vn 0.571616 0.337398 -0.747943
vn 0.385965 0.414653 -0.824072
vn 0.365617 0.418994 -0.831125
vn 0.181765 0.467285 -0.865220
vn 0.165854 0.473188 -0.865209
vn -0.006311 0.531116 -0.847275
vn -0.017316 0.534388 -0.845062
vn -0.289900 0.570453 -0.768467
vn -0.304205 0.570185 -0.763118
vn -0.631121 0.515289 -0.579796
vn -0.635093 0.513904 -0.576680
vn -0.751043 0.457542 -0.476015
vn -0.752113 0.458301 -0.473588
vn -0.778242 0.571141 -0.261032
vn -0.771190 0.524902 -0.360200
vn -0.708223 0.629452 0.319703
vn -0.739222 0.639901 0.209947
vn -0.657955 0.494468 0.567976
vn -0.652122 0.527706 0.544301
vn -0.681110 0.340353 0.648266
vn -0.677684 0.365670 0.637989
vn -0.391016 0.292836 0.872556
vn -0.530010 0.283115 0.799334
vn 0.036247 0.162551 0.986034
vn 0.036499 0.162298 0.986066
vn 0.205357 0.065822 0.976471
vn 0.223067 0.062996 0.972765
vn 0.511322 0.038947 0.858507
vn 0.533770 0.039303 0.844716
vn 0.825735 0.015993 0.563832
vn 0.835702 0.013508 0.549017
vn 0.995437 -0.054126 0.078580
vn 0.995854 -0.054881 0.072549
vn 0.867558 0.412759 -0.277441
vn 0.785777 0.443574 -0.431042
vn 0.795641 0.441125 -0.415169
vn 0.871733 0.409003 -0.269809
vn 0.696306 0.433153 -0.572308
vn 0.566773 0.402225 -0.719016
vn 0.576761 0.427605 -0.696061
vn 0.701387 0.440955 -0.560013
vn 0.314691 0.353899 -0.880753
vn 0.320409 0.388693 -0.863861
vn 0.043746 0.300606 -0.952745
vn 0.065212 0.330991 -0.941378
vn -0.245008 0.240121 -0.939315
vn -0.208238 0.273512 -0.939057
vn -0.569124 0.190258 -0.799937
vn -0.540534 0.230077 -0.809251
vn -0.780202 0.169434 -0.602143
vn -0.752280 0.239399 -0.613810
vn -0.932935 0.161589 -0.321749
vn -0.890594 0.234257 -0.389828
vn -0.986692 0.159475 -0.031717
vn -0.975385 0.179121 -0.128610
vn -0.925340 0.209892 0.315741
vn -0.936345 0.212851 0.279202
vn -0.805932 0.277557 0.522911
vn -0.783346 0.309805 0.538878
vn -0.626349 0.312801 0.714032
vn -0.634001 0.352332 0.688408
vn -0.316733 0.295440 0.901330
vn -0.330760 0.318422 0.888372
vn 0.022043 0.262140 0.964778
vn 0.057598 0.245943 0.967571
vn 0.260812 0.244017 0.934041
vn 0.258232 0.237329 0.936478
vn 0.535274 0.202927 0.819940
vn 0.526246 0.197335 0.827118
vn 0.789982 0.200264 0.579502
vn 0.793517 0.195289 0.576362
vn 0.943873 0.272324 0.186930
vn 0.946350 0.268603 0.179651
vn 0.921431 0.362073 -0.140952
vn 0.920815 0.357718 -0.155363
vn 0.041297 0.996725 0.069524
vn 0.041297 0.996725 0.069524
vn 0.041297 0.996725 0.069524
vn 0.041297 0.996725 0.069524
vn 0.041297 0.996725 0.069524
vn 0.041297 0.996725 0.069524
vn 0.041297 0.996725 0.069524
vn 0.041297 0.996725 0.069524
vn 0.041297 0.996725 0.069524
vn 0.041297 0.996725 0.069524
vn 0.041297 0.996725 0.069524
vn 0.041297 0.996725 0.069524
vn 0.041297 0.996725 0.069524
vn 0.041297 0.996725 0.069524
vn 0.041297 0.996725 0.069524
vn 0.041297 0.996725 0.069524
vn 0.041297 0.996725 0.069524
vn 0.041297 0.996725 0.069524
vn 0.041297 0.996725 0.069524
vn 0.041297 0.996725 0.069524
vn 0.041297 0.996725 0.069524
vn 0.589486 0.469456 -0.657357
vn 0.711458 0.452363 -0.537769
vn 0.809364 0.437817 -0.391467
vn 0.862146 0.411788 -0.295185
vn 0.909109 0.360754 -0.208274
vn 0.954939 0.265798 0.132073
vn 0.809105 0.186765 0.557196
vn 0.534521 0.185458 0.824556
vn 0.248971 0.225665 0.941854
vn 0.095522 0.218868 0.971068
vn -0.290219 0.305834 0.906774
vn -0.623393 0.418806 0.660289
vn -0.752364 0.335842 0.566708
vn -0.976747 0.190871 0.097638
vn -0.915316 0.272581 -0.296473
vn -0.809953 0.379069 -0.447530
vn -0.704318 0.359055 -0.612386
vn -0.493099 0.315097 -0.810905
vn -0.130913 0.337060 -0.932337
vn 0.130025 0.389268 -0.911901
vn 0.356417 0.461718 -0.812271
s off
g pCone1
usemtl blinn1SG
f 1/1/1 20/20/2 19/19/3 18/18/4 17/17/5 16/16/6 15/15/7 14/14/8 13/13/9 12/12/10 11/11/11 10/10/12 9/9/13 8/8/14 7/7/15 6/6/16 5/5/17 4/4/18 3/3/19 2/2/20 81/127/21
s 1
f 21/21/22 22/28/23 83/129/24 84/130/25
f 22/22/23 21/23/22 59/24/26 60/66/27
f 23/67/28 24/30/29 26/32/30 25/68/31
f 25/68/31 26/32/30 28/34/32 27/69/33
f 27/69/33 28/34/32 30/36/34 29/70/35
f 29/70/35 30/36/34 32/38/36 31/71/37
f 31/71/37 32/38/36 34/40/38 33/72/39
f 33/72/39 34/40/38 36/42/40 35/73/41
f 35/73/41 36/42/40 38/44/42 37/74/43
f 37/74/43 38/44/42 40/46/44 39/75/45
f 39/75/45 40/46/44 42/48/46 41/76/47
f 41/76/47 42/48/46 44/50/48 43/77/49
f 43/77/49 44/50/48 46/52/50 45/78/51
f 45/78/51 46/52/50 48/54/52 47/79/53
f 47/79/53 48/54/52 50/56/54 49/80/55
f 49/80/55 50/56/54 52/58/56 51/81/57
f 51/81/57 52/58/56 54/60/58 53/82/59
f 53/82/59 54/60/58 56/62/60 55/83/61
f 55/83/61 56/62/60 58/64/62 57/84/63
f 57/84/63 58/64/62 60/66/27 59/25/26
s 2
f 1/26/64 81/126/65 82/128/66 63/107/67
f 2/27/68 3/29/69 61/105/70 62/106/71
f 3/29/69 4/31/72 80/125/73 61/105/70
f 4/31/72 5/33/74 79/124/75 80/125/73
f 5/33/74 6/35/76 78/123/77 79/124/75
f 6/35/76 7/37/78 77/122/79 78/123/77
f 7/37/78 8/39/80 76/121/81 77/122/79
f 8/39/80 9/41/82 75/120/83 76/121/81
f 9/41/82 10/43/84 74/119/85 75/120/83
f 10/43/84 11/45/86 73/118/87 74/119/85
f 11/45/86 12/47/88 72/117/89 73/118/87
f 12/47/88 13/49/90 71/116/91 72/117/89
f 13/49/90 14/51/92 70/115/93 71/116/91
f 14/51/92 15/53/94 69/114/95 70/115/93
f 15/53/94 16/55/96 68/113/97 69/114/95
f 16/55/96 17/57/98 67/112/99 68/113/97
f 17/57/98 18/59/100 66/111/101 67/112/99
f 18/59/100 19/61/102 65/110/103 66/111/101
f 19/61/102 20/63/104 64/109/105 65/110/103
f 20/63/104 1/65/64 63/108/67 64/109/105
s off
f 23/85/106 25/86/107 27/87/108 29/88/109 31/89/110 33/90/111 35/91/112 37/92/113 39/93/114 41/94/115 43/95/116 45/96/117 47/97/118 49/98/119 51/99/120 53/100/121 55/101/122 57/102/123 59/103/124 21/104/125 84/131/126
s 2
f 62/106/71 61/105/70 26/32/127 24/30/128
f 63/107/67 82/128/66 83/129/129 22/28/130
f 64/109/105 63/108/67 22/22/130 60/66/131
f 65/110/103 64/109/105 60/66/131 58/64/132
f 66/111/101 65/110/103 58/64/132 56/62/133
f 67/112/99 66/111/101 56/62/133 54/60/134
f 68/113/97 67/112/99 54/60/134 52/58/135
f 69/114/95 68/113/97 52/58/135 50/56/136
f 70/115/93 69/114/95 50/56/136 48/54/137
f 71/116/91 70/115/93 48/54/137 46/52/138
f 72/117/89 71/116/91 46/52/138 44/50/139
f 73/118/87 72/117/89 44/50/139 42/48/140
f 74/119/85 73/118/87 42/48/140 40/46/141
f 75/120/83 74/119/85 40/46/141 38/44/142
f 76/121/81 75/120/83 38/44/142 36/42/143
f 77/122/79 76/121/81 36/42/143 34/40/144
f 78/123/77 77/122/79 34/40/144 32/38/145
f 79/124/75 78/123/77 32/38/145 30/36/146
f 80/125/73 79/124/75 30/36/146 28/34/147
f 61/105/70 80/125/73 28/34/147 26/32/127
f 81/126/65 2/27/68 62/106/71 82/128/66
f 83/129/129 82/128/66 62/106/71 24/30/128
s 1
f 84/130/25 83/129/24 24/30/29 23/67/28
