# This file uses centimeters as units for non-parametric coordinates.

mtllib moundwithshellwithshell1.mtl
g default
v 12.919436 -1.284674 -0.844751
v 12.540836 -1.243351 -1.395806
v 12.048566 -1.210310 -1.861330
v 11.402793 -1.213801 -2.147668
v 10.704800 -1.218332 -2.263144
v 10.039784 -1.200298 -2.122536
v 9.422327 -1.198138 -1.797881
v 8.930684 -1.198137 -1.306235
v 8.615029 -1.198137 -0.686728
v 8.506262 -1.198137 0.000000
v 8.615029 -1.198137 0.686728
v 8.925436 -1.201010 1.308510
v 9.297339 -1.266554 1.852061
v 9.914296 -1.269044 2.175345
v 10.721450 -1.204012 2.236500
v 11.415093 -1.198591 2.115555
v 12.033724 -1.206687 1.844389
v 12.539796 -1.236594 1.410195
v 12.888777 -1.269832 0.754412
v 13.034713 -1.276846 -0.114459
v 11.871509 1.430164 -0.345415
v 11.979598 1.303090 -0.377986
v 11.651689 1.404755 -0.776232
v 11.767287 1.315198 -0.810191
v 11.363937 1.467897 -1.092876
v 11.450294 1.327942 -1.162713
v 10.981751 1.483867 -1.266473
v 11.041522 1.330247 -1.355819
v 10.607126 1.522598 -1.286262
v 10.617031 1.363935 -1.386159
v 10.286028 1.568430 -1.263349
v 10.238231 1.404121 -1.353407
v 10.010793 1.605575 -1.203165
v 9.933320 1.446793 -1.271465
v 9.766920 1.637584 -1.063923
v 9.670676 1.502714 -1.104486
v 9.543552 1.625800 -0.816793
v 9.420491 1.501615 -0.811064
v 9.280626 1.530371 -0.470301
v 9.138934 1.408897 -0.388899
v 9.190444 1.440661 -0.081898
v 9.066969 1.323731 0.048817
v 9.357212 1.358522 0.395094
v 9.258724 1.244801 0.521487
v 9.797592 1.292741 1.047000
v 9.772179 1.228518 1.206760
v 10.168829 1.326619 1.557356
v 10.199903 1.234607 1.668705
v 10.740494 1.245626 1.637865
v 10.753151 1.121314 1.722279
v 11.501658 1.181484 1.467303
v 11.476701 1.062229 1.533458
v 11.988938 1.211306 1.336359
v 11.960498 1.087914 1.391735
v 12.229008 1.245769 1.108121
v 12.206371 1.119638 1.149735
v 12.343843 1.298909 0.752034
v 12.353429 1.163407 0.762466
v 12.168428 1.369291 0.228784
v 12.227236 1.240692 0.201778
vt 1.032523 0.096185
vt 0.997013 0.026493
vt 0.941705 -0.028815
vt 0.872013 -0.064325
vt 0.794759 -0.076561
vt 0.717505 -0.064325
vt 0.647813 -0.028815
vt 0.592505 0.026493
vt 0.556995 0.096185
vt 0.544759 0.173439
vt 0.556995 0.250694
vt 0.592505 0.320386
vt 0.647813 0.375694
vt 0.717505 0.411203
vt 0.794759 0.423439
vt 0.872013 0.411203
vt 0.941705 0.375694
vt 0.997013 0.320386
vt 1.032523 0.250694
vt 1.044759 0.173439
vt 0.381249 0.750000
vt 0.629619 0.740762
vt 0.624529 0.750000
vt 0.613505 0.750000
vt 0.447489 0.750000
vt 0.250000 0.500000
vt 0.275000 0.500000
vt 0.370381 0.740762
vt 0.300000 0.500000
vt 0.383343 0.740762
vt 0.325000 0.500000
vt 0.396305 0.740762
vt 0.350000 0.500000
vt 0.409267 0.740762
vt 0.375000 0.500000
vt 0.422229 0.740762
vt 0.400000 0.500000
vt 0.435190 0.740762
vt 0.425000 0.500000
vt 0.448152 0.740762
vt 0.450000 0.500000
vt 0.461114 0.740762
vt 0.475000 0.500000
vt 0.474076 0.740762
vt 0.500000 0.500000
vt 0.487038 0.740762
vt 0.525000 0.500000
vt 0.500000 0.740762
vt 0.550000 0.500000
vt 0.512962 0.740762
vt 0.575000 0.500000
vt 0.525924 0.740762
vt 0.600000 0.500000
vt 0.538886 0.740762
vt 0.625000 0.500000
vt 0.551847 0.740762
vt 0.650000 0.500000
vt 0.564809 0.740762
vt 0.675000 0.500000
vt 0.577771 0.740762
vt 0.700000 0.500000
vt 0.590733 0.740762
vt 0.725000 0.500000
vt 0.603695 0.740762
vt 0.750000 0.500000
vt 0.616657 0.740762
vt 0.387958 0.750000
vt 0.399588 0.750000
vt 0.411617 0.750000
vt 0.423630 0.750000
vt 0.435597 0.750000
vt 0.447498 0.750000
vt 0.459308 0.750000
vt 0.470993 0.750000
vt 0.482501 0.750000
vt 0.493750 0.750000
vt 0.505001 0.750000
vt 0.515865 0.750000
vt 0.526124 0.750000
vt 0.535376 0.750000
vt 0.542823 0.750000
vt 0.546669 0.750000
vt 0.542121 0.750000
vt 0.513390 0.750000
vt 0.983982 0.074443
vt 1.006416 0.199136
vt 0.989220 0.324658
vt 0.934077 0.438723
vt 0.846385 0.530165
vt 0.734728 0.590033
vt 0.610035 0.612468
vt 0.484513 0.595272
vt 0.370448 0.540129
vt 0.279006 0.452437
vt 0.219138 0.340780
vt 0.196703 0.216087
vt 0.213899 0.090565
vt 0.269042 -0.023500
vt 0.356734 -0.114942
vt 0.468391 -0.174811
vt 0.593084 -0.197245
vt 0.718606 -0.180049
vt 0.832671 -0.124906
vt 0.924113 -0.037214
vn -0.011507 -0.999927 -0.003570
vn -0.011507 -0.999927 -0.003570
vn -0.011507 -0.999927 -0.003570
vn -0.011507 -0.999927 -0.003570
vn -0.011507 -0.999927 -0.003570
vn -0.011507 -0.999927 -0.003570
vn -0.011507 -0.999927 -0.003570
vn -0.011507 -0.999927 -0.003570
vn -0.011507 -0.999927 -0.003570
vn -0.011507 -0.999927 -0.003570
vn -0.011507 -0.999927 -0.003570
vn -0.011507 -0.999927 -0.003570
vn -0.011507 -0.999927 -0.003570
vn -0.011507 -0.999927 -0.003570
vn -0.011507 -0.999927 -0.003570
vn -0.011507 -0.999927 -0.003570
vn -0.011507 -0.999927 -0.003570
vn -0.011507 -0.999927 -0.003570
vn -0.011507 -0.999927 -0.003570
vn -0.011507 -0.999927 -0.003570
vn 0.694400 0.649391 -0.310001
vn 0.708112 0.635157 -0.308467
vn 0.595082 0.716827 -0.363369
vn 0.587907 0.711696 -0.384518
vn 0.851947 0.446329 -0.273819
vn 0.856881 0.437989 -0.271884
vn 0.479437 0.653965 -0.585209
vn 0.450449 0.637298 -0.625257
vn 0.255562 0.563595 -0.785525
vn 0.214398 0.556596 -0.802642
vn 0.054264 0.522098 -0.851157
vn 0.044995 0.519989 -0.852987
vn -0.075573 0.495319 -0.865418
vn -0.066095 0.497131 -0.865155
vn -0.272131 0.500271 -0.821994
vn -0.245630 0.496804 -0.832377
vn -0.527083 0.566528 -0.633427
vn -0.486159 0.552715 -0.676872
vn -0.675045 0.621528 -0.397515
vn -0.643470 0.606063 -0.467583
vn -0.671981 0.739065 -0.047165
vn -0.696924 0.670806 -0.253609
vn -0.514510 0.813503 0.271093
vn -0.593930 0.791049 0.146592
vn -0.432149 0.835964 0.338247
vn -0.449074 0.829640 0.331707
vn -0.498451 0.771802 0.394802
vn -0.437336 0.824002 0.360220
vn -0.127386 0.715729 0.686662
vn -0.373265 0.739623 0.560028
vn 0.163776 0.571758 0.803909
vn 0.145238 0.587119 0.796365
vn 0.238765 0.472879 0.848161
vn 0.235800 0.452148 0.860210
vn 0.343575 0.344749 0.873559
vn 0.487619 0.269370 0.830462
vn 0.803802 0.096646 0.586994
vn 0.886160 0.056896 0.459874
vn 0.987165 0.156979 0.029385
vn 0.981951 0.185100 -0.038863
vn 0.867386 0.357588 -0.346081
vn 0.749940 0.357609 -0.556512
vn 0.747195 0.357236 -0.560430
vn 0.866879 0.357678 -0.347257
vn 0.548758 0.341923 -0.762858
vn 0.539205 0.341272 -0.769929
vn 0.268376 0.324920 -0.906864
vn 0.256666 0.324513 -0.910392
vn 0.004257 0.313088 -0.949714
vn -0.010065 0.312303 -0.949929
vn -0.254541 0.288967 -0.922880
vn -0.262933 0.287821 -0.920883
vn -0.511471 0.260900 -0.818736
vn -0.509258 0.261101 -0.820051
vn -0.745115 0.247886 -0.619158
vn -0.730812 0.248213 -0.635850
vn -0.887152 0.232288 -0.398753
vn -0.871157 0.235747 -0.430707
vn -0.967797 0.221904 -0.118860
vn -0.957445 0.222566 -0.183748
vn -0.931735 0.244707 0.268305
vn -0.951382 0.236590 0.197222
vn -0.807271 0.280407 0.519312
vn -0.825848 0.274607 0.492510
vn -0.681434 0.281336 0.675646
vn -0.691308 0.282657 0.664980
vn -0.356917 0.249565 0.900182
vn -0.351318 0.248977 0.902544
vn 0.066505 0.219038 0.973447
vn 0.065605 0.219000 0.973517
vn 0.267380 0.217671 0.938684
vn 0.275549 0.216783 0.936525
vn 0.489941 0.195064 0.849652
vn 0.510872 0.192547 0.837816
vn 0.799930 0.180654 0.572255
vn 0.803800 0.180857 0.566741
vn 0.953672 0.234225 0.188810
vn 0.952920 0.233347 0.193632
vn 0.942811 0.311004 -0.119930
vn 0.944505 0.308602 -0.112583
vn 0.035213 0.993034 0.112447
vn 0.035213 0.993034 0.112447
vn 0.035213 0.993034 0.112447
vn 0.035213 0.993034 0.112447
vn 0.035213 0.993034 0.112447
vn 0.035213 0.993034 0.112447
vn 0.035213 0.993034 0.112447
vn 0.035213 0.993034 0.112447
vn 0.035213 0.993034 0.112447
vn 0.035213 0.993034 0.112447
vn 0.035213 0.993034 0.112447
vn 0.035213 0.993034 0.112447
vn 0.035213 0.993034 0.112447
vn 0.035213 0.993034 0.112447
vn 0.035213 0.993034 0.112447
vn 0.035213 0.993034 0.112447
vn 0.035213 0.993034 0.112447
vn 0.035213 0.993034 0.112447
vn 0.035213 0.993034 0.112447
vn 0.035213 0.993034 0.112447
s off
g pCone1
usemtl blinn1SG
f 1/1/1 20/20/2 19/19/3 18/18/4 17/17/5 16/16/6 15/15/7 14/14/8 13/13/9 12/12/10 11/11/11 10/10/12 9/9/13 8/8/14 7/7/15 6/6/16 5/5/17 4/4/18 3/3/19 2/2/20
s 1
f 21/21/21 22/28/22 24/30/23 23/67/24
f 22/22/22 21/23/21 59/24/25 60/66/26
f 23/67/24 24/30/23 26/32/27 25/68/28
f 25/68/28 26/32/27 28/34/29 27/69/30
f 27/69/30 28/34/29 30/36/31 29/70/32
f 29/70/32 30/36/31 32/38/33 31/71/34
f 31/71/34 32/38/33 34/40/35 33/72/36
f 33/72/36 34/40/35 36/42/37 35/73/38
f 35/73/38 36/42/37 38/44/39 37/74/40
f 37/74/40 38/44/39 40/46/41 39/75/42
f 39/75/42 40/46/41 42/48/43 41/76/44
f 41/76/44 42/48/43 44/50/45 43/77/46
f 43/77/46 44/50/45 46/52/47 45/78/48
f 45/78/48 46/52/47 48/54/49 47/79/50
f 47/79/50 48/54/49 50/56/51 49/80/52
f 49/80/52 50/56/51 52/58/53 51/81/54
f 51/81/54 52/58/53 54/60/55 53/82/56
f 53/82/56 54/60/55 56/62/57 55/83/58
f 55/83/58 56/62/57 58/64/59 57/84/60
f 57/84/60 58/64/59 60/66/26 59/25/25
s 2
f 1/26/61 2/27/62 24/30/63 22/28/64
f 2/27/62 3/29/65 26/32/66 24/30/63
f 3/29/65 4/31/67 28/34/68 26/32/66
f 4/31/67 5/33/69 30/36/70 28/34/68
f 5/33/69 6/35/71 32/38/72 30/36/70
f 6/35/71 7/37/73 34/40/74 32/38/72
f 7/37/73 8/39/75 36/42/76 34/40/74
f 8/39/75 9/41/77 38/44/78 36/42/76
f 9/41/77 10/43/79 40/46/80 38/44/78
f 10/43/79 11/45/81 42/48/82 40/46/80
f 11/45/81 12/47/83 44/50/84 42/48/82
f 12/47/83 13/49/85 46/52/86 44/50/84
f 13/49/85 14/51/87 48/54/88 46/52/86
f 14/51/87 15/53/89 50/56/90 48/54/88
f 15/53/89 16/55/91 52/58/92 50/56/90
f 16/55/91 17/57/93 54/60/94 52/58/92
f 17/57/93 18/59/95 56/62/96 54/60/94
f 18/59/95 19/61/97 58/64/98 56/62/96
f 19/61/97 20/63/99 60/66/100 58/64/98
f 20/63/99 1/65/61 22/22/64 60/66/100
s off
f 23/85/101 25/86/102 27/87/103 29/88/104 31/89/105 33/90/106 35/91/107 37/92/108 39/93/109 41/94/110 43/95/111 45/96/112 47/97/113 49/98/114 51/99/115 53/100/116 55/101/117 57/102/118 59/103/119 21/104/120
g default
v 10.769141 1.426263 0.402726
v 10.744574 1.430884 0.474987
v 10.743281 1.439714 0.613057
v 10.804052 1.446315 0.716287
v 10.907493 1.451348 0.795000
v 11.045845 1.453411 0.827259
v 11.181611 1.451101 0.791128
v 11.283759 1.445820 0.708545
v 11.340651 1.439384 0.607896
v 11.338065 1.430802 0.473697
v 11.310912 1.426016 0.398855
v 11.131184 1.421065 0.321433
v 11.142821 1.417022 0.258204
v 11.080756 1.417599 0.267237
v 11.043259 1.415784 0.238849
v 11.005762 1.417352 0.263366
v 10.942404 1.416939 0.256914
v 10.946283 1.421395 0.326594
v 10.769141 1.471189 0.399853
v 10.744574 1.475810 0.472114
v 10.743281 1.484639 0.610184
v 10.804052 1.491240 0.713414
v 10.907493 1.496274 0.792127
v 11.045845 1.498337 0.824386
v 11.181611 1.496026 0.788256
v 11.283759 1.490745 0.705672
v 11.340651 1.484309 0.605023
v 11.338065 1.475727 0.470824
v 11.310912 1.470941 0.395982
v 11.131184 1.465990 0.318560
v 11.142821 1.461947 0.255332
v 11.080756 1.462525 0.264364
v 11.043259 1.460709 0.235976
v 11.005762 1.462277 0.260493
v 10.942404 1.461864 0.254041
v 10.946283 1.466320 0.323721
vt 0.423541 0.000000
vt 0.549455 0.000000
vt 0.765888 0.071184
vt 0.895042 0.220682
vt 0.963310 0.423721
vt 0.940518 0.656573
vt 0.812228 0.849134
vt 0.629136 0.964642
vt 0.441760 1.000000
vt 0.233428 0.924819
vt 0.130846 0.842797
vt 0.104958 0.521478
vt 0.000000 0.506103
vt 0.046952 0.414107
vt 0.022432 0.340583
vt 0.080582 0.295107
vt 0.104022 0.192885
vt 0.210852 0.235877
vt 0.423541 0.000000
vt 0.549455 0.000000
vt 0.765888 0.071184
vt 0.895042 0.220682
vt 0.963310 0.423721
vt 0.940518 0.656573
vt 0.812228 0.849134
vt 0.629136 0.964642
vt 0.441760 1.000000
vt 0.233428 0.924819
vt 0.130846 0.842797
vt 0.104958 0.521478
vt 0.000000 0.506103
vt 0.046952 0.414107
vt 0.022432 0.340583
vt 0.080582 0.295107
vt 0.104022 0.192885
vt 0.210852 0.235877
vt 0.423541 0.000000
vt 0.549455 0.000000
vt 0.765888 0.071184
vt 0.895042 0.220682
vt 0.963310 0.423721
vt 0.940518 0.656573
vt 0.812228 0.849134
vt 0.629136 0.964642
vt 0.441760 1.000000
vt 0.233428 0.924819
vt 0.130846 0.842797
vt 0.104958 0.521478
vt 0.000000 0.506103
vt 0.046952 0.414107
vt 0.022432 0.340583
vt 0.080582 0.295107
vt 0.104022 0.192885
vt 0.210852 0.235877
vn 0.000000 0.997962 -0.063818
vn 0.000000 0.997962 -0.063818
vn 0.000000 0.997962 -0.063818
vn 0.000000 0.997962 -0.063818
vn 0.000000 0.997962 -0.063818
vn 0.000000 0.997962 -0.063818
vn 0.000000 0.997962 -0.063818
vn 0.000000 0.997962 -0.063818
vn 0.000000 0.997962 -0.063818
vn 0.000000 0.997962 -0.063818
vn 0.000000 0.997962 -0.063818
vn 0.000000 0.997962 -0.063818
vn 0.000000 0.997962 -0.063818
vn 0.000000 0.997962 -0.063818
vn 0.000000 0.997962 -0.063818
vn 0.000000 0.997962 -0.063818
vn 0.000000 0.997962 -0.063818
vn 0.000000 0.997962 -0.063818
vn -0.000000 -0.997962 0.063818
vn -0.000000 -0.997962 0.063818
vn -0.000000 -0.997962 0.063818
vn -0.000000 -0.997962 0.063818
vn -0.000000 -0.997962 0.063818
vn -0.000000 -0.997962 0.063818
vn -0.000000 -0.997962 0.063818
vn -0.000000 -0.997962 0.063818
vn -0.000000 -0.997962 0.063818
vn -0.000000 -0.997962 0.063818
vn -0.000000 -0.997962 0.063818
vn -0.000000 -0.997962 0.063818
vn -0.000000 -0.997962 0.063818
vn -0.000000 -0.997962 0.063818
vn -0.000000 -0.997962 0.063818
vn -0.000000 -0.997962 0.063818
vn -0.000000 -0.997962 0.063818
vn -0.000000 -0.997962 0.063818
vn -0.946979 -0.020504 -0.320641
vn -0.992556 -0.007772 -0.121538
vn -0.992556 -0.007772 -0.121538
vn -0.946979 -0.020504 -0.320641
vn -0.999956 -0.000596 -0.009326
vn -0.999956 -0.000596 -0.009326
vn -0.862211 0.032327 0.505516
vn -0.743032 0.042710 0.667892
vn -0.743032 0.042710 0.667892
vn -0.862211 0.032327 0.505516
vn -0.417825 0.057980 0.906675
vn -0.417825 0.057980 0.906675
vn 0.014150 0.063811 0.997862
vn 0.014150 0.063811 0.997862
vn 0.447214 0.057080 0.892604
vn 0.447214 0.057080 0.892604
vn 0.755865 0.041783 0.653393
vn 0.755865 0.041783 0.653393
vn 0.870979 0.031355 0.490320
vn 0.870979 0.031355 0.490320
vn 0.999815 -0.001227 -0.019188
vn 0.990071 -0.008971 -0.140279
vn 0.990071 -0.008971 -0.140279
vn 0.999815 -0.001227 -0.019188
vn 0.940266 -0.021726 -0.339747
vn 0.940266 -0.021726 -0.339747
vn 0.396309 -0.058592 -0.916245
vn 0.396309 -0.058592 -0.916245
vn 0.396309 -0.058592 -0.916245
vn 0.396309 -0.058592 -0.916245
vn 0.983547 0.011529 0.180283
vn 0.983547 0.011529 0.180283
vn 0.983547 0.011529 0.180283
vn 0.983547 0.011529 0.180283
vn -0.144307 -0.063150 -0.987516
vn -0.144307 -0.063150 -0.987516
vn -0.144307 -0.063150 -0.987516
vn -0.144307 -0.063150 -0.987516
vn 0.604387 -0.050843 -0.795067
vn 0.604387 -0.050843 -0.795067
vn 0.604387 -0.050843 -0.795067
vn 0.604387 -0.050843 -0.795067
vn -0.548026 -0.053381 -0.834756
vn -0.548026 -0.053381 -0.834756
vn -0.548026 -0.053381 -0.834756
vn -0.548026 -0.053381 -0.834756
vn 0.101514 -0.063488 -0.992806
vn 0.101514 -0.063488 -0.992806
vn 0.101514 -0.063488 -0.992806
vn 0.101514 -0.063488 -0.992806
vn -0.998460 0.003540 0.055357
vn -0.998460 0.003540 0.055357
vn -0.998460 0.003540 0.055357
vn -0.998460 0.003540 0.055357
vn -0.395537 -0.058613 -0.916578
vn -0.395537 -0.058613 -0.916578
vn -0.395537 -0.058613 -0.916578
vn -0.395537 -0.058613 -0.916578
s off
g tracedshell:polySurface1
usemtl tracedshell:lambert3SG
f 79/141/121 80/142/122 81/143/123 82/144/124 83/145/125 84/146/126 85/147/127 86/148/128 87/149/129 88/150/130 89/151/131 90/152/132 91/153/133 92/154/134 93/155/135 94/156/136 95/157/137 96/158/138
f 61/123/139 78/140/140 77/139/141 76/138/142 75/137/143 74/136/144 73/135/145 72/134/146 71/133/147 70/132/148 69/131/149 68/130/150 67/129/151 66/128/152 65/127/153 64/126/154 63/125/155 62/124/156
s 1
f 61/105/157 62/106/158 80/142/159 79/141/160
f 62/106/158 63/107/161 81/143/162 80/142/159
s 2
f 63/107/163 64/108/164 82/144/165 81/143/166
f 64/108/164 65/109/167 83/145/168 82/144/165
f 65/109/167 66/110/169 84/146/170 83/145/168
f 66/110/169 67/111/171 85/147/172 84/146/170
f 67/111/171 68/112/173 86/148/174 85/147/172
f 68/112/173 69/113/175 87/149/176 86/148/174
s 3
f 69/113/177 70/114/178 88/150/179 87/149/180
f 70/114/178 71/115/181 89/151/182 88/150/179
s off
f 71/115/183 72/116/184 90/152/185 89/151/186
f 72/116/187 73/117/188 91/153/189 90/152/190
f 73/117/191 74/118/192 92/154/193 91/153/194
f 74/118/195 75/119/196 93/155/197 92/154/198
f 75/119/199 76/120/200 94/156/201 93/155/202
f 76/120/203 77/121/204 95/157/205 94/156/206
f 77/121/207 78/122/208 96/158/209 95/157/210
f 78/122/211 61/105/212 79/141/213 96/158/214
